<?xml version="1.0" encoding="UTF-8" standalone="no"?><svg xmlns="http://www.w3.org/2000/svg" xmlns:xlink="http://www.w3.org/1999/xlink" contentScriptType="application/ecmascript" contentStyleType="text/css" height="559px" preserveAspectRatio="none" style="width:400px;height:559px;" version="1.1" viewBox="0 0 400 559" width="400px" zoomAndPan="magnify"><defs><filter height="300%" id="fk2pm7qbt668y" width="300%" x="-1" y="-1"><feGaussianBlur result="blurOut" stdDeviation="2.0"/><feColorMatrix in="blurOut" result="blurOut2" type="matrix" values="0 0 0 0 0 0 0 0 0 0 0 0 0 0 0 0 0 0 .4 0"/><feOffset dx="4.0" dy="4.0" in="blurOut2" result="blurOut3"/><feBlend in="SourceGraphic" in2="blurOut3" mode="normal"/></filter></defs><g><text fill="#000000" font-family="sans-serif" font-size="18" lengthAdjust="spacingAndGlyphs" textLength="200" x="98.5" y="16.708">SignBox - Repositories</text><!--entity front_sb--><polygon fill="#FEFECE" filter="url(#fk2pm7qbt668y)" points="18.5,326.9531,80.5,326.9531,87.5,349.25,153.5,349.25,153.5,398.8438,18.5,398.8438,18.5,326.9531" style="stroke: #FF0000; stroke-width: 1.5;"/><line style="stroke: #FF0000; stroke-width: 1.5;" x1="18.5" x2="87.5" y1="349.25" y2="349.25"/><text fill="#000000" font-family="sans-serif" font-size="14" lengthAdjust="spacingAndGlyphs" textLength="56" x="22.5" y="342.9482">front_sb</text><text fill="#000000" font-family="sans-serif" font-size="14" font-style="italic" lengthAdjust="spacingAndGlyphs" textLength="87" x="37.5" y="369.2451">«repository»</text><text fill="#000000" font-family="sans-serif" font-size="14" font-weight="bold" lengthAdjust="spacingAndGlyphs" textLength="105" x="28.5" y="385.542">SignBox_Web</text><!--entity api_sb--><polygon fill="#FEFECE" filter="url(#fk2pm7qbt668y)" points="122.5,475.9531,172.5,475.9531,179.5,498.25,257.5,498.25,257.5,547.8438,122.5,547.8438,122.5,475.9531" style="stroke: #FF0000; stroke-width: 1.5;"/><line style="stroke: #FF0000; stroke-width: 1.5;" x1="122.5" x2="179.5" y1="498.25" y2="498.25"/><text fill="#000000" font-family="sans-serif" font-size="14" lengthAdjust="spacingAndGlyphs" textLength="44" x="126.5" y="491.9482">api_sb</text><text fill="#000000" font-family="sans-serif" font-size="14" font-style="italic" lengthAdjust="spacingAndGlyphs" textLength="87" x="141.5" y="518.2451">«repository»</text><text fill="#000000" font-family="sans-serif" font-size="14" font-weight="bold" lengthAdjust="spacingAndGlyphs" textLength="105" x="132.5" y="534.542">SignBox_Rest</text><!--entity front_ft--><polygon fill="#FEFECE" filter="url(#fk2pm7qbt668y)" points="6,177.9531,60,177.9531,67,200.25,166,200.25,166,249.8438,6,249.8438,6,177.9531" style="stroke: #FF0000; stroke-width: 1.5;"/><line style="stroke: #FF0000; stroke-width: 1.5;" x1="6" x2="67" y1="200.25" y2="200.25"/><text fill="#000000" font-family="sans-serif" font-size="14" lengthAdjust="spacingAndGlyphs" textLength="48" x="10" y="193.9482">front_ft</text><text fill="#000000" font-family="sans-serif" font-size="14" font-style="italic" lengthAdjust="spacingAndGlyphs" textLength="87" x="37.5" y="220.2451">«repository»</text><text fill="#000000" font-family="sans-serif" font-size="14" font-weight="bold" lengthAdjust="spacingAndGlyphs" textLength="130" x="16" y="236.542">SignBox-FT_Web</text><!--entity api_ft--><polygon fill="#FEFECE" filter="url(#fk2pm7qbt668y)" points="189,326.9531,231,326.9531,238,349.25,349,349.25,349,398.8438,189,398.8438,189,326.9531" style="stroke: #FF0000; stroke-width: 1.5;"/><line style="stroke: #FF0000; stroke-width: 1.5;" x1="189" x2="238" y1="349.25" y2="349.25"/><text fill="#000000" font-family="sans-serif" font-size="14" lengthAdjust="spacingAndGlyphs" textLength="36" x="193" y="342.9482">api_ft</text><text fill="#000000" font-family="sans-serif" font-size="14" font-style="italic" lengthAdjust="spacingAndGlyphs" textLength="87" x="220.5" y="369.2451">«repository»</text><text fill="#000000" font-family="sans-serif" font-size="14" font-weight="bold" lengthAdjust="spacingAndGlyphs" textLength="130" x="199" y="385.542">SignBox-FT_Rest</text><!--entity front_cpic--><polygon fill="#FEFECE" filter="url(#fk2pm7qbt668y)" points="110.5,28.9531,183.5,28.9531,190.5,51.25,287.5,51.25,287.5,100.8438,110.5,100.8438,110.5,28.9531" style="stroke: #FF0000; stroke-width: 1.5;"/><line style="stroke: #FF0000; stroke-width: 1.5;" x1="110.5" x2="190.5" y1="51.25" y2="51.25"/><text fill="#000000" font-family="sans-serif" font-size="14" lengthAdjust="spacingAndGlyphs" textLength="67" x="114.5" y="44.9482">front_cpic</text><text fill="#000000" font-family="sans-serif" font-size="14" font-style="italic" lengthAdjust="spacingAndGlyphs" textLength="87" x="150.5" y="71.2451">«repository»</text><text fill="#000000" font-family="sans-serif" font-size="14" font-weight="bold" lengthAdjust="spacingAndGlyphs" textLength="147" x="120.5" y="87.542">SignBox-CPIC_Web</text><!--entity api_cpic--><polygon fill="#FEFECE" filter="url(#fk2pm7qbt668y)" points="201.5,177.9531,262.5,177.9531,269.5,200.25,378.5,200.25,378.5,249.8438,201.5,249.8438,201.5,177.9531" style="stroke: #FF0000; stroke-width: 1.5;"/><line style="stroke: #FF0000; stroke-width: 1.5;" x1="201.5" x2="269.5" y1="200.25" y2="200.25"/><text fill="#000000" font-family="sans-serif" font-size="14" lengthAdjust="spacingAndGlyphs" textLength="55" x="205.5" y="193.9482">api_cpic</text><text fill="#000000" font-family="sans-serif" font-size="14" font-style="italic" lengthAdjust="spacingAndGlyphs" textLength="87" x="241.5" y="220.2451">«repository»</text><text fill="#000000" font-family="sans-serif" font-size="14" font-weight="bold" lengthAdjust="spacingAndGlyphs" textLength="147" x="211.5" y="236.542">SignBox-CPIC_Rest</text><!--link front_sb to api_sb--><path d="M110.911,399.1631 C126.355,420.9931 146.222,449.0743 162.18,471.631 " fill="none" id="front_sb-api_sb" style="stroke: #A80036; stroke-width: 1.0; stroke-dasharray: 7.0,7.0;"/><polygon fill="#A80036" points="165.113,475.7758,163.1801,466.1185,162.2251,471.6941,156.6495,470.7391,165.113,475.7758" style="stroke: #A80036; stroke-width: 1.0;"/><text fill="#000000" font-family="sans-serif" font-size="13" lengthAdjust="spacingAndGlyphs" textLength="39" x="143" y="442.02">«use»</text><!--link front_cpic to api_cpic--><path d="M220.797,101.1631 C234.254,122.9021 251.55,150.8411 265.484,173.3501 " fill="none" id="front_cpic-api_cpic" style="stroke: #A80036; stroke-width: 1.0; stroke-dasharray: 7.0,7.0;"/><polygon fill="#A80036" points="268.224,177.7761,266.8885,168.0182,265.5925,173.5246,260.0861,172.2286,268.224,177.7761" style="stroke: #A80036; stroke-width: 1.0;"/><text fill="#000000" font-family="sans-serif" font-size="13" lengthAdjust="spacingAndGlyphs" textLength="39" x="249" y="144.02">«use»</text><!--link front_ft to api_ft--><path d="M129.833,250.1631 C157.347,272.2641 192.839,300.7741 221.093,323.4711 " fill="none" id="front_ft-api_ft" style="stroke: #A80036; stroke-width: 1.0; stroke-dasharray: 7.0,7.0;"/><polygon fill="#A80036" points="225.208,326.7761,220.6961,318.0215,221.3098,323.645,215.6863,324.2586,225.208,326.7761" style="stroke: #A80036; stroke-width: 1.0;"/><text fill="#000000" font-family="sans-serif" font-size="13" lengthAdjust="spacingAndGlyphs" textLength="39" x="184" y="293.02">«use»</text><!--link front_cpic to front_ft--><path d="M171.934,101.1631 C158.008,119.2791 140.772,141.7001 125.401,161.6971 " fill="none" id="front_cpic-front_ft" style="stroke: #A80036; stroke-width: 1.0;"/><polygon fill="none" points="130.78,166.1851,113.041,177.7761,119.68,157.6531,130.78,166.1851" style="stroke: #A80036; stroke-width: 1.0;"/><text fill="#000000" font-family="sans-serif" font-size="13" lengthAdjust="spacingAndGlyphs" textLength="67" x="147" y="144.02">«extends»</text><!--link api_cpic to api_ft--><path d="M284.97,250.1631 C282.55,267.1011 279.593,287.8041 276.883,306.7691 " fill="none" id="api_cpic-api_ft" style="stroke: #A80036; stroke-width: 1.0;"/><polygon fill="none" points="283.783,307.9671,274.025,326.7761,269.924,305.9871,283.783,307.9671" style="stroke: #A80036; stroke-width: 1.0;"/><text fill="#000000" font-family="sans-serif" font-size="13" lengthAdjust="spacingAndGlyphs" textLength="67" x="281" y="293.02">«extends»</text><!--link front_ft to front_sb--><path d="M86,250.1631 C86,267.1011 86,287.8041 86,306.7691 " fill="none" id="front_ft-front_sb" style="stroke: #A80036; stroke-width: 1.0;"/><polygon fill="none" points="93.0001,306.7761,86,326.7761,79.0001,306.7761,93.0001,306.7761" style="stroke: #A80036; stroke-width: 1.0;"/><text fill="#000000" font-family="sans-serif" font-size="13" lengthAdjust="spacingAndGlyphs" textLength="67" x="87" y="293.02">«extends»</text><!--link api_ft to api_sb--><path d="M250.078,399.1631 C240.634,416.7361 229.013,438.3591 218.516,457.8909 " fill="none" id="api_ft-api_sb" style="stroke: #A80036; stroke-width: 1.0;"/><polygon fill="none" points="224.539,461.4724,208.905,475.7758,212.207,454.845,224.539,461.4724" style="stroke: #A80036; stroke-width: 1.0;"/><text fill="#000000" font-family="sans-serif" font-size="13" lengthAdjust="spacingAndGlyphs" textLength="67" x="233" y="442.02">«extends»</text><!--
@startuml
title SignBox - Repositories

package "**SignBox_Web**" <<repository>> as front_sb
package "**SignBox_Rest**" <<repository>> as api_sb
package "**SignBox-FT_Web**" <<repository>> as front_ft
package "**SignBox-FT_Rest**" <<repository>> as api_ft
package "**SignBox-CPIC_Web**" <<repository>> as front_cpic
package "**SignBox-CPIC_Rest**" <<repository>> as api_cpic

front_sb ..> api_sb: <<use>>
front_cpic ..> api_cpic: <<use>>
front_ft ..> api_ft: <<use>>
front_cpic - -|> front_ft : <<extends>>
api_cpic - -|> api_ft: <<extends>>
front_ft - -|> front_sb: <<extends>>
api_ft - -|> api_sb: <<extends>>


skinparam package{
    fontStyle<<repository>> bold
    stereotypeStyle<<repository>> bold
    borderColor<<repository>> red
}


@enduml

PlantUML version 1.2019.03(Sun Mar 10 08:04:44 ART 2019)
(GPL source distribution)
Java Runtime: Java(TM) SE Runtime Environment
JVM: Java HotSpot(TM) 64-Bit Server VM
Java Version: 1.8.0_161-b12
Operating System: Linux
OS Version: 4.15.0-47-generic
Default Encoding: UTF-8
Language: es
Country: AR
--></g></svg>